<svg height="128" viewBox="0 0 128 128" width="128" xmlns="http://www.w3.org/2000/svg">
	<path d="m31.028111 17.25025c-1.098127.326509-2.019313 1.309101-2.870494 3.044287-.87011 1.77377-1.58949 4.198131-2.317876 6.818888-1.456771 5.241516-2.89464 11.307588-5.430792 13.481471-2.536152 2.173881-3.159209 3.612352-3.159209 4.630613v63.171721c0 1.32576 1.027255 2.35303 2.353023 2.35303h88.793947c1.32576 0 2.35304-1.02727 2.35304-2.35303v-63.171721c0-1.018262-.62305-2.456732-3.15921-4.630613-2.53617-2.173883-3.97403-8.239955-5.4308-13.481471-.72839-2.620757-1.44777-5.045118-2.317879-6.818888-.851181-1.735186-1.772367-2.717778-2.870494-3.044287h-32.971628z" fill="#fff" stroke="#7e7e7e" stroke-linejoin="round" stroke-width="2.5"/>
	<path d="m60.810547 27.75c-1.141075 0-2.060547.919472-2.060547 2.060547v9.939453h-10.173828c-1.011652 0-1.826172.81452-1.826172 1.826172v6.847656c0 1.011652.81452 1.826172 1.826172 1.826172h10.173828v9.939453c0 1.141075.919472 2.060547 2.060547 2.060547h6.378906c1.141075 0 2.060547-.919472 2.060547-2.060547v-9.939453h10.173828c1.011652 0 1.826172-.81452 1.826172-1.826172v-6.847656c0-1.011652-.81452-1.826172-1.826172-1.826172h-10.173828v-9.939453c0-1.141075-.919472-2.060547-2.060547-2.060547z" fill="#fff" stroke="#2d80ff" stroke-linejoin="round" stroke-width="2.5"/>
	<rect fill="#c5c5c5" height="2" ry=".5" stroke-width=".5" width="18" x="41" y="72"/>
	<rect fill="#f6b044" height="5" ry="1" stroke="#b57415" width="5" x="30.5" y="70.5"/>
	<rect fill="#c5c5c5" height="2" ry=".5" stroke-width=".5" width="18" x="41" y="84"/>
	<rect fill="#c161ec" height="5" ry="1" stroke="#9118c7" width="5" x="30.5" y="94.5"/>
	<rect fill="#c5c5c5" height="2" ry=".5" stroke-width=".5" width="18" x="41" y="96"/>
	<rect fill="#90eb45" height="5" ry="1" stroke="#56a712" width="5" x="30.5" y="82.5"/>
	<rect fill="#c5c5c5" height="2" ry=".5" stroke-width=".5" width="18" x="79" y="72"/>
	<rect fill="#eb719f" height="5" ry="1" stroke="#da2168" width="5" x="68.5" y="70.5"/>
	<rect fill="#c5c5c5" height="2" ry=".5" stroke-width=".5" width="18" x="79" y="84"/>
	<rect fill="#fbe636" height="5" ry="1" stroke="#b3a10f" width="5" x="68.5" y="82.5"/>
	<rect fill="#c5c5c5" height="2" ry=".5" stroke-width=".5" width="18" x="79" y="96"/>
	<rect fill="#61ddec" height="5" ry="1" stroke="#17acbe" width="5" x="68.5" y="94.5"/>
</svg>
