<svg height="280" viewBox="0 0 440 280" width="440" xmlns="http://www.w3.org/2000/svg">
	<path d="m0 0h440v280h-440z" fill="#7e7e7e"/>
	<path d="m40.49256 7.0718909c-2.66652.7928462-4.903385 3.1788151-6.970261 7.3922811-2.11284 4.307147-3.859671 10.194086-5.62837 16.557908-3.537396 12.727692-7.028894 27.457593-13.187291 32.73633-6.1583975 5.278712-7.6713323 8.771669-7.6713323 11.244254v192.248306c0 3.21926 2.4944263 5.71373 5.7137153 5.71373h414.501909c3.21927 0 5.71376-2.49447 5.71376-5.71373v-192.248306c0-2.472585-1.51291-5.965542-7.67133-11.244254-6.15845-5.278737-9.64992-20.008638-13.18731-32.73633-1.76871-6.363822-3.51555-12.250761-5.62838-16.557908-2.06687-4.213466-4.30374-6.5994349-6.97026-7.3922811h-278.95167z" fill="#fff" stroke="#7e7e7e" stroke-linejoin="round" stroke-width="6.070611"/>
	<path d="m86.82624 40.535105c-2.77119 0-5.00419 2.232998-5.00419 5.004192v24.138662h-24.707865c-2.456869 0-4.434989 1.97812-4.434989 4.434984v16.63003c0 2.456864 1.97812 4.434984 4.434989 4.434984h24.707865v24.138663c0 2.77119 2.233 5.00419 5.00419 5.00419h15.49162c2.77119 0 5.00419-2.233 5.00419-5.00419v-24.138663h24.70786c2.45687 0 4.43499-1.97812 4.43499-4.434984v-16.63003c0-2.456864-1.97812-4.434984-4.43499-4.434984h-24.70786v-24.138662c0-2.771194-2.233-5.004192-5.00419-5.004192z" fill="#fff" stroke="#2d80ff" stroke-linejoin="round" stroke-width="6.071428"/>
	<rect fill="#c5c5c5" height="4.857142" ry="1.214286" stroke-width="1.398695" width="58" x="76.715363" y="159.99939"/>
	<rect fill="#f6b044" height="12.142856" ry="2.428571" stroke="#b57415" stroke-width="2.428571" width="12.142856" x="51.215363" y="156.35652"/>
	<rect fill="#c5c5c5" height="4.857142" ry="1.214286" stroke-width="1.398695" width="58" x="76.715363" y="193.14224"/>
	<rect fill="#c161ec" height="12.142856" ry="2.428571" stroke="#9118c7" stroke-width="2.428571" width="12.142856" x="51.215363" y="222.6422"/>
	<rect fill="#c5c5c5" height="4.857142" ry="1.214286" stroke-width="1.398695" width="58" x="76.715363" y="226.28505"/>
	<rect fill="#90eb45" height="12.142856" ry="2.428571" stroke="#56a712" stroke-width="2.428571" width="12.142856" x="51.215363" y="189.49937"/>
	<rect fill="#c5c5c5" height="4.857142" ry="1.214286" stroke-width="1.398695" width="58" x="204.85822" y="159.99919"/>
	<rect fill="#eb719f" height="12.142856" ry="2.428571" stroke="#da2168" stroke-width="2.428571" width="12.142856" x="179.35823" y="156.35652"/>
	<rect fill="#c5c5c5" height="4.857142" ry="1.214286" stroke-width="1.398695" width="58" x="204.85822" y="193.14204"/>
	<rect fill="#fbe636" height="12.142856" ry="2.428571" stroke="#b3a10f" stroke-width="2.428571" width="12.142856" x="179.35823" y="189.49937"/>
	<rect fill="#c5c5c5" height="4.857142" ry="1.214286" stroke-width="1.398695" width="58" x="204.85822" y="226.28485"/>
	<rect fill="#61ddec" height="12.142856" ry="2.428571" stroke="#17acbe" stroke-width="2.428571" width="12.142856" x="179.35823" y="222.6422"/>
	<rect fill="#c5c5c5" height="4.857142" ry="1.214286" stroke-width="1.398695" width="58" x="333.00107" y="159.99939"/>
	<rect fill="#90eb45" height="12.142856" ry="2.428571" stroke="#56a712" stroke-width="2.428571" width="12.142856" x="307.50107" y="156.35652"/>
	<rect fill="#c5c5c5" height="4.857142" ry="1.214286" stroke-width="1.398695" width="58" x="333.00107" y="193.14224"/>
	<rect fill="#c161ec" height="12.142856" ry="2.428571" stroke="#9118c7" stroke-width="2.428571" width="12.142856" x="307.50107" y="189.49937"/>
	<rect fill="#c5c5c5" height="4.857142" ry="1.214286" stroke-width="1.398695" width="58" x="333.00107" y="226.28505"/>
	<rect fill="#f6b044" height="12.142856" ry="2.428571" stroke="#b57415" stroke-width="2.428571" width="12.142856" x="307.50107" y="222.6422"/>
	<text fill="#3a3a3a" font-family="URW Gothic" font-size="40" letter-spacing="0" word-spacing="0" x="162.44576" y="73.01535"><tspan dx="0" fill="#3a3a3a" font-family="URW Gothic" font-size="40" font-weight="600" letter-spacing="0" x="162.44576" y="73.01535">Humble</tspan><tspan fill="#3a3a3a" font-family="URW Gothic" font-size="34.666668" letter-spacing="-.9" x="162.44576" y="117.01535">New Tab Page</tspan></text>
</svg>
